<svg width="24" height="24" viewBox="0 0 24 24" fill="none" xmlns="http://www.w3.org/2000/svg">
<path d="M20 6.69434V20C20 21.1046 19.1046 22 18 22H6C4.89543 22 4 21.1046 4 20V4C4 2.89543 4.89543 2 6 2H15.3057L20 6.69434ZM6 20H18V9H13V4H6V20ZM12 10C12.5523 10 13 10.4477 13 11V12.999L15 13C15.5523 13 16 13.4477 16 14C16 14.5523 15.5523 15 15 15L13 14.999V17C13 17.5523 12.5523 18 12 18C11.4477 18 11 17.5523 11 17V14.999L9 15C8.44772 15 8 14.5523 8 14C8 13.4477 8.44772 13 9 13L11 12.999V11C11 10.4477 11.4477 10 12 10ZM15 7H17.6934L15 4.30566V7Z" fill="#7E84A3"/>
</svg>
