<svg width="24" height="24" viewBox="0 0 24 24" fill="none" xmlns="http://www.w3.org/2000/svg">
<path d="M18.293 4.29289C18.6835 3.90237 19.3165 3.90237 19.707 4.29289C20.0675 4.65338 20.0951 5.22091 19.79 5.61321L19.707 5.70696L17.333 8.08C18.76 9.04874 20.3169 10.3536 22 11.9999C17.9107 15.9999 14.5773 17.9999 12 17.9999C10.9386 17.9999 9.74948 17.6598 8.43164 16.9814L5.70703 19.707C5.31651 20.0975 4.68349 20.0975 4.29297 19.707C3.93248 19.3465 3.90494 18.7789 4.20996 18.3866L4.29297 18.2929L6.66602 15.9189C5.23934 14.9502 3.68268 13.6458 2 11.9999C6.08934 7.99992 9.42267 5.99992 12 5.99992C13.0611 5.99992 14.25 6.33951 15.5674 7.0175L18.293 4.29289ZM13.9297 11.4833C13.9738 11.6483 14 11.821 14 11.9999C14 13.1045 13.1046 13.9999 12 13.9999C11.8211 13.9999 11.6484 13.9737 11.4834 13.9296L9.92871 15.4843C10.6415 15.7966 11.2774 15.9675 11.833 15.996L12 15.9999C13.5835 15.9999 15.8709 14.7909 18.7363 12.2968L19.0732 11.9999L19.0459 11.9745C17.9042 10.9587 16.8497 10.1434 15.8926 9.52043L13.9297 11.4833ZM12 7.99992C10.4165 7.99992 8.12915 9.2089 5.26367 11.703L4.92578 11.9999L4.9541 12.0253C6.09538 13.0407 7.14958 13.8556 8.10645 14.4784L10.0693 12.5155C10.0255 12.3509 10 12.1784 10 11.9999C10 10.8954 10.8954 9.99992 12 9.99992C12.1785 9.99992 12.351 10.0254 12.5156 10.0693L14.0703 8.51457C13.358 8.20257 12.7223 8.03233 12.167 8.00383L12 7.99992Z" fill="#7E84A3"/>
</svg>
