<svg width="24" height="24" viewBox="0 0 24 24" fill="none" xmlns="http://www.w3.org/2000/svg">
<path d="M10.5049 3.68199C11.2387 2.85643 12.5035 2.78214 13.3291 3.51598C13.3875 3.56794 13.4432 3.62355 13.4951 3.68199L19.4951 10.432C19.8203 10.798 19.9999 11.2705 20 11.7601V19.0004C19.9998 20.1048 19.1045 21.0004 18 21.0004H6C4.89553 21.0004 4.00016 20.1048 4 19.0004V11.7601C4.00008 11.2705 4.1797 10.798 4.50488 10.432L10.5049 3.68199ZM6 11.7601V19.0004H9V14.0004C9 13.4481 9.44772 13.0004 10 13.0004H14C14.5523 13.0004 15 13.4481 15 14.0004V19.0004H18V11.7601L12 5.01012L6 11.7601ZM11 19.0004H13V15.0004H11V19.0004Z" fill="#7E84A3"/>
</svg>
