<svg width="24" height="24" viewBox="0 0 24 24" fill="none" xmlns="http://www.w3.org/2000/svg">
<path d="M12 2C17.5228 2 22 6.47715 22 12C22 17.5228 17.5228 22 12 22C6.47715 22 2 17.5228 2 12C2 6.47715 6.47715 2 12 2ZM12 4C7.58172 4 4 7.58172 4 12C4 16.4183 7.58172 20 12 20C16.4183 20 20 16.4183 20 12C20 7.58172 16.4183 4 12 4ZM13 18H11V16H13V18ZM12 6C14.2091 6 16 7.79086 16 10C16 11.8638 14.7251 13.4289 13 13.873V14C13 14.5523 12.5523 15 12 15C11.4477 15 11 14.5523 11 14V13C11 12.4477 11.4477 12 12 12C13.1046 12 14 11.1046 14 10C14 8.89543 13.1046 8 12 8C10.9457 8 10.0823 8.81581 10.0059 9.85059L10 10H8C8 7.79086 9.79086 6 12 6Z" fill="#7E84A3"/>
</svg>
