<svg width="24" height="24" viewBox="0 0 24 24" fill="none" xmlns="http://www.w3.org/2000/svg">
<path d="M12.293 6.29279C12.6535 5.93231 13.221 5.90476 13.6133 6.20978L13.707 6.29279L18.707 11.2928C19.0675 11.6533 19.0951 12.2208 18.79 12.6131L18.707 12.7069L13.707 17.7069C13.3165 18.0974 12.6835 18.0974 12.293 17.7069C11.9325 17.3464 11.9049 16.7788 12.21 16.3865L12.293 16.2928L15.585 12.9998H5C4.44772 12.9998 4 12.5521 4 11.9998C4 11.4475 4.44772 10.9998 5 10.9998H15.585L12.293 7.70685C11.9325 7.34637 11.9049 6.77883 12.21 6.38654L12.293 6.29279Z" fill="#7E84A3"/>
</svg>
